<svg xmlns="http://www.w3.org/2000/svg" width="200" height="139.40853364514442" viewBox="0 0 200 139.40853364514442" class="css-1j8o68f"><defs id="SvgjsDefs1490"/><g id="SvgjsG1491" featurekey="symbolFeature-0" transform="matrix(2.1767441860465118,0,0,2.1767441860465118,48,-5.44186046511628)" fill="#01aac1"><g xmlns="http://www.w3.org/2000/svg"><path d="M45.2,2.5H2.8C1.3,2.5,0,3.7,0,5.3v28.1c0,1.6,1.3,2.8,2.8,2.8h42.4c1.6,0,2.8-1.3,2.8-2.8V5.3C48,3.7,46.7,2.5,45.2,2.5z    M46,33.3c0,0.4-0.4,0.8-0.8,0.8H2.8c-0.4,0-0.8-0.4-0.8-0.8V5.3c0-0.4,0.4-0.8,0.8-0.8h42.4c0.4,0,0.8,0.4,0.8,0.8V33.3z"/><path d="M47,40.4H13.9c-0.5-1.7-2-3-3.9-3s-3.4,1.3-3.9,3H1c-0.6,0-1,0.4-1,1s0.4,1,1,1h5.1c0.4,1.8,2,3.1,3.9,3.1s3.5-1.3,3.9-3.1   H47c0.6,0,1-0.4,1-1S47.6,40.4,47,40.4z M10,43.5c-1.1,0-2-0.9-2-2s0.9-2,2-2c1.1,0,1.9,0.8,2,1.8c0,0,0,0.1,0,0.1   c0,0.1,0,0.1,0,0.2C12,42.7,11.1,43.5,10,43.5z"/><path d="M28.7,16.6l-6-3.8c-2.1-1.3-4.9,0.2-4.9,2.7v7.6c0,2.5,2.8,4,4.9,2.7l6-3.8c0.9-0.6,1.5-1.6,1.5-2.7S29.6,17.2,28.7,16.6z    M27.6,20.3l-6,3.8c-0.8,0.5-1.8-0.1-1.8-1v-7.6c0-0.9,1-1.5,1.8-1l6,3.8c0.3,0.2,0.5,0.6,0.5,1S28,20.1,27.6,20.3z"/></g></g><g id="SvgjsG1492" featurekey="nameFeature-0" transform="matrix(0.8618905712241046,0,0,0.8618905712241046,-0.0000018494165279905656,104.72605561243174)" fill="#ffffff"><path d="M11.6 11.36 l6.68 0 l0 28.56 l-3.76 0 l0 -22.6 l-3.56 22.68 l-1.48 0 l-0.36 -0.08 l-0.32 0.08 l-1.48 0 l-3.52 -22.68 l0 22.6 l-3.8 0 l0 -28.56 l6.72 0 l2.44 16.16 z M30.804000000000002 40.04 c-3 0 -5.4 -2.44 -5.4 -5.4 l0 -17.96 c0 -2.96 2.4 -5.36 5.4 -5.36 c2.96 0 5.36 2.4 5.36 5.36 l0 17.96 c0 2.96 -2.4 5.4 -5.36 5.4 z M30.804000000000002 15.120000000000001 c-0.88 0 -1.56 0.72 -1.56 1.56 l0 17.96 c0 0.88 0.68 1.56 1.56 1.56 c0.84 0 1.56 -0.68 1.56 -1.56 l0 -17.96 c0 -0.84 -0.72 -1.56 -1.56 -1.56 z M50.407999999999994 40 l-3.96 0 l-4 -28.56 l3.84 0 l2.08 14.72 l1.92 -14.72 l3.84 0 z M65.05199999999999 11.36 l0 28.48 l-3.8 0 l0 -28.48 l3.8 0 z M81.49599999999998 24.92 l-5.52 0 l0 11.28 l5.56 0 l0 3.8 l-9.36 0 l0 -28.56 l9.36 0 l0 3.8 l-5.56 0 l0 5.88 l5.52 0 l0 3.8 z M113.38399999999997 11.36 l6.68 0 l0 28.56 l-3.76 0 l0 -22.6 l-3.56 22.68 l-1.48 0 l-0.36 -0.08 l-0.32 0.08 l-1.48 0 l-3.52 -22.68 l0 22.6 l-3.8 0 l0 -28.56 l6.72 0 l2.44 16.16 z M136.98799999999997 40 l-1.44 -9.88 l-4.04 0 l-1.32 9.88 l-3.84 0 l4.32 -28.6 l5.16 0 l5 28.6 l-3.84 0 z M132.02799999999996 26.32 l2.96 0 l-1.52 -10.4 z M152.95199999999997 40.04 l-5 0 l0 -28.52 l5 0 c3.4 0 6.12 2.76 6.12 6.16 l0 16.2 c0 1.64 -0.64 3.2 -1.8 4.36 s-2.68 1.8 -4.32 1.8 z M151.75199999999998 15.36 l0 20.84 l1.2 0 c0.6 0 1.2 -0.24 1.64 -0.68 s0.68 -1 0.68 -1.64 l0 -16.2 c0 -1.28 -1.04 -2.32 -2.32 -2.32 l-1.2 0 z M175.47599999999997 33.44 l0.16 -22.16 l3.84 0 l-0.24 28.88 l-5.96 0 l-3.24 -22.36 l0 22.36 l-3.84 0 l0 -28.88 l6.2 0 z M195.91999999999996 24.92 l-5.52 0 l0 11.28 l5.56 0 l0 3.8 l-9.36 0 l0 -28.56 l9.36 0 l0 3.8 l-5.56 0 l0 5.88 l5.52 0 l0 3.8 z M208.56399999999996 40.24 c-3.04 0 -5.48 -2.48 -5.48 -5.48 l0 -4.36 l3.88 0 l0 4.36 c0 0.88 0.72 1.6 1.6 1.6 s1.56 -0.72 1.56 -1.6 l0 -3.8 l-7.04 -9.72 l0 -4.96 c0 -3.04 2.44 -5.52 5.48 -5.52 c3 0 5.44 2.48 5.44 5.52 l0 4.32 l-3.88 0 l0 -4.32 c0 -0.92 -0.68 -1.6 -1.56 -1.6 s-1.6 0.68 -1.6 1.6 l0 3.64 l7.04 9.72 l0 5.12 c0 3 -2.44 5.48 -5.44 5.48 z M226.60799999999998 40.24 c-3.04 0 -5.48 -2.48 -5.48 -5.48 l0 -4.36 l3.88 0 l0 4.36 c0 0.88 0.72 1.6 1.6 1.6 s1.56 -0.72 1.56 -1.6 l0 -3.8 l-7.04 -9.72 l0 -4.96 c0 -3.04 2.44 -5.52 5.48 -5.52 c3 0 5.44 2.48 5.44 5.52 l0 4.32 l-3.88 0 l0 -4.32 c0 -0.92 -0.68 -1.6 -1.56 -1.6 s-1.6 0.68 -1.6 1.6 l0 3.64 l7.04 9.72 l0 5.12 c0 3 -2.44 5.48 -5.44 5.48 z"/></g></svg>